<svg width="50" height="50" viewBox="0 0 50 50" fill="none" xmlns="http://www.w3.org/2000/svg">
<path d="M48.5841 30.6863C47.6797 28.1694 44.9601 22.0935 41.1265 15.5044C36.754 7.98881 32.404 1.32503 27.0858 0.209216C26.7964 0.148194 26.0354 0 25.4017 0C20.6051 0 15.9718 5.32131 14.5709 10.6439C12.0235 20.3151 15.1485 22.1233 19.274 21.2728C21.3211 20.8506 22.9753 19.4347 24.5908 17.7298C29.8877 12.142 36.9349 22.7759 32.2243 28.7012C22.5574 40.8606 13.861 15.157 2.14446 34.091C1.28867 35.4733 0 38.6925 0 41.0474C0 46.4185 3.40943 49.9341 8.0776 49.9989C10.3468 50.03 12.8842 49.4285 14.9988 45.9229C15.6674 44.8146 16.1916 42.3189 17 41.025C17.5115 40.2056 18.7076 38.3451 23.0651 37.0088C26.7627 35.8756 29.2091 37.2155 31.8775 41.9217C34.2216 46.0562 38.1687 47.03 40.6537 47.0786C43.1712 47.1284 48.1263 46.1583 49.5983 41.025C50.5938 37.558 49.541 33.345 48.5841 30.6863Z" fill="#F5F5F5"/>
</svg>
